<?xml version="1.0" encoding="UTF-8" standalone="no"?>
<!DOCTYPE svg PUBLIC "-//W3C//DTD SVG 1.1//EN"
 "http://www.w3.org/Graphics/SVG/1.1/DTD/svg11.dtd">
<!-- Generated by graphviz version 2.30.1 (20130214.1330)
 -->
<!-- Title: Tasks Pages: 1 -->
<svg width="293pt" height="332pt"
 viewBox="0.00 0.00 293.00 332.00" xmlns="http://www.w3.org/2000/svg" xmlns:xlink="http://www.w3.org/1999/xlink">
<g id="graph0" class="graph" transform="scale(1 1) rotate(0) translate(4 328)">
<title>Tasks</title>
<polygon fill="white" stroke="white" points="-4,5 -4,-328 290,-328 290,5 -4,5"/>
<!-- taskBallPhy -->
<g id="node1" class="node"><title>taskBallPhy</title>
<g id="a_node1"><a xlink:href="ball_physics/" xlink:title="Ball physics">
<polygon fill="none" stroke="black" points="84,-324 0,-324 0,-288 84,-288 84,-324"/>
<text text-anchor="middle" x="42" y="-302.3" font-family="Times New Roman,serif" font-size="14.00">Ball physics</text>
</a>
</g>
</g>
<!-- taskBatPhy -->
<g id="node2" class="node"><title>taskBatPhy</title>
<g id="a_node2"><a xlink:href="bat-physics.html" xlink:title="Bat physics">
<polygon fill="none" stroke="black" points="184,-324 102,-324 102,-288 184,-288 184,-324"/>
<text text-anchor="middle" x="143" y="-302.3" font-family="Times New Roman,serif" font-size="14.00">Bat physics</text>
</a>
</g>
</g>
<!-- taskBallPhy&#45;&gt;taskBatPhy -->
<g id="edge2" class="edge"><title>taskBallPhy&#45;&gt;taskBatPhy</title>
<path fill="none" stroke="black" d="M84.2148,-306C86.669,-306 89.1232,-306 91.5773,-306"/>
<polygon fill="black" stroke="black" points="91.6667,-309.5 101.667,-306 91.6667,-302.5 91.6667,-309.5"/>
</g>
<!-- taskBallSkin -->
<g id="node4" class="node"><title>taskBallSkin</title>
<g id="a_node4"><a xlink:href="ball-skin.html" xlink:title="Ball skin">
<polygon fill="none" stroke="black" points="84,-252 20,-252 20,-216 84,-216 84,-252"/>
<text text-anchor="middle" x="52" y="-230.3" font-family="Times New Roman,serif" font-size="14.00">Ball skin</text>
</a>
</g>
</g>
<!-- taskBallPhy&#45;&gt;taskBallSkin -->
<g id="edge3" class="edge"><title>taskBallPhy&#45;&gt;taskBallSkin</title>
<path fill="none" stroke="black" d="M44.4719,-287.697C45.5739,-279.983 46.8982,-270.712 48.1268,-262.112"/>
<polygon fill="black" stroke="black" points="51.607,-262.499 49.5565,-252.104 44.6774,-261.509 51.607,-262.499"/>
</g>
<!-- taskBatSkin -->
<g id="node3" class="node"><title>taskBatSkin</title>
<g id="a_node3"><a xlink:href="ball-physics.html" xlink:title="Bat skin">
<polygon fill="none" stroke="black" points="174,-252 112,-252 112,-216 174,-216 174,-252"/>
<text text-anchor="middle" x="143" y="-230.3" font-family="Times New Roman,serif" font-size="14.00">Bat skin</text>
</a>
</g>
</g>
<!-- taskBatPhy&#45;&gt;taskBatSkin -->
<g id="edge4" class="edge"><title>taskBatPhy&#45;&gt;taskBatSkin</title>
<path fill="none" stroke="black" d="M143,-287.697C143,-279.983 143,-270.712 143,-262.112"/>
<polygon fill="black" stroke="black" points="146.5,-262.104 143,-252.104 139.5,-262.104 146.5,-262.104"/>
</g>
<!-- taskGame -->
<g id="node7" class="node"><title>taskGame</title>
<g id="a_node7"><a xlink:href="game.html" xlink:title="Game">
<polygon fill="none" stroke="black" points="170,-180 116,-180 116,-144 170,-144 170,-180"/>
<text text-anchor="middle" x="143" y="-158.3" font-family="Times New Roman,serif" font-size="14.00">Game</text>
</a>
</g>
</g>
<!-- taskBatSkin&#45;&gt;taskGame -->
<g id="edge7" class="edge"><title>taskBatSkin&#45;&gt;taskGame</title>
<path fill="none" stroke="black" d="M143,-215.697C143,-207.983 143,-198.712 143,-190.112"/>
<polygon fill="black" stroke="black" points="146.5,-190.104 143,-180.104 139.5,-190.104 146.5,-190.104"/>
</g>
<!-- taskBallSkin&#45;&gt;taskGame -->
<g id="edge6" class="edge"><title>taskBallSkin&#45;&gt;taskGame</title>
<path fill="none" stroke="black" d="M74.4944,-215.697C85.9551,-206.881 100.058,-196.032 112.484,-186.474"/>
<polygon fill="black" stroke="black" points="114.972,-188.976 120.764,-180.104 110.704,-183.427 114.972,-188.976"/>
</g>
<!-- taskNetPhy -->
<g id="node5" class="node"><title>taskNetPhy</title>
<g id="a_node5"><a xlink:href="net-phy.html" xlink:title="Net physics">
<polygon fill="none" stroke="black" points="285.25,-324 202.75,-324 202.75,-288 285.25,-288 285.25,-324"/>
<text text-anchor="middle" x="244" y="-302.3" font-family="Times New Roman,serif" font-size="14.00">Net physics</text>
</a>
</g>
</g>
<!-- taskNetSkin -->
<g id="node6" class="node"><title>taskNetSkin</title>
<g id="a_node6"><a xlink:href="net-skin.html" xlink:title="Net skin">
<polygon fill="none" stroke="black" points="264,-252 202,-252 202,-216 264,-216 264,-252"/>
<text text-anchor="middle" x="233" y="-230.3" font-family="Times New Roman,serif" font-size="14.00">Net skin</text>
</a>
</g>
</g>
<!-- taskNetPhy&#45;&gt;taskNetSkin -->
<g id="edge1" class="edge"><title>taskNetPhy&#45;&gt;taskNetSkin</title>
<path fill="none" stroke="black" d="M241.281,-287.697C240.069,-279.983 238.612,-270.712 237.261,-262.112"/>
<polygon fill="black" stroke="black" points="240.698,-261.44 235.688,-252.104 233.783,-262.526 240.698,-261.44"/>
</g>
<!-- taskNetSkin&#45;&gt;taskGame -->
<g id="edge5" class="edge"><title>taskNetSkin&#45;&gt;taskGame</title>
<path fill="none" stroke="black" d="M210.753,-215.697C199.418,-206.881 185.47,-196.032 173.181,-186.474"/>
<polygon fill="black" stroke="black" points="175.034,-183.481 164.991,-180.104 170.736,-189.007 175.034,-183.481"/>
</g>
<!-- taskMultiplayer -->
<g id="node9" class="node"><title>taskMultiplayer</title>
<g id="a_node9"><a xlink:href="multiplayer.html" xlink:title="Multiplayer">
<polygon fill="none" stroke="black" points="182.25,-108 103.75,-108 103.75,-72 182.25,-72 182.25,-108"/>
<text text-anchor="middle" x="143" y="-86.3" font-family="Times New Roman,serif" font-size="14.00">Multiplayer</text>
</a>
</g>
</g>
<!-- taskGame&#45;&gt;taskMultiplayer -->
<g id="edge8" class="edge"><title>taskGame&#45;&gt;taskMultiplayer</title>
<path fill="none" stroke="black" d="M143,-143.697C143,-135.983 143,-126.712 143,-118.112"/>
<polygon fill="black" stroke="black" points="146.5,-118.104 143,-108.104 139.5,-118.104 146.5,-118.104"/>
</g>
<!-- taskAI -->
<g id="node8" class="node"><title>taskAI</title>
<g id="a_node8"><a xlink:href="ai.html" xlink:title="AI">
<polygon fill="none" stroke="black" points="170,-36 116,-36 116,-0 170,-0 170,-36"/>
<text text-anchor="middle" x="143" y="-14.3" font-family="Times New Roman,serif" font-size="14.00">AI</text>
</a>
</g>
</g>
<!-- taskMultiplayer&#45;&gt;taskAI -->
<g id="edge9" class="edge"><title>taskMultiplayer&#45;&gt;taskAI</title>
<path fill="none" stroke="black" d="M143,-71.6966C143,-63.9827 143,-54.7125 143,-46.1124"/>
<polygon fill="black" stroke="black" points="146.5,-46.1043 143,-36.1043 139.5,-46.1044 146.5,-46.1043"/>
</g>
</g>
</svg>
