<?xml version="1.0" encoding="UTF-8" standalone="no"?>
<!DOCTYPE svg PUBLIC "-//W3C//DTD SVG 1.1//EN"
 "http://www.w3.org/Graphics/SVG/1.1/DTD/svg11.dtd">
<!-- Generated by graphviz version 2.38.0 (20140413.2041)
 -->
<!-- Title: Tasks Pages: 1 -->
<svg width="288pt" height="332pt"
 viewBox="0.00 0.00 287.50 332.00" xmlns="http://www.w3.org/2000/svg" xmlns:xlink="http://www.w3.org/1999/xlink">
<g id="graph0" class="graph" transform="scale(1 1) rotate(0) translate(4 328)">
<title>Tasks</title>
<polygon fill="white" stroke="none" points="-4,4 -4,-328 283.5,-328 283.5,4 -4,4"/>
<!-- taskBallPhy -->
<g id="node1" class="node"><title>taskBallPhy</title>
<g id="a_node1"><a xlink:href="ball-physics.html" xlink:title="Ball physics">
<polygon fill="none" stroke="black" points="83,-324 0,-324 0,-288 83,-288 83,-324"/>
<text text-anchor="middle" x="41.5" y="-302.3" font-family="Times,serif" font-size="14.00">Ball physics</text>
</a>
</g>
</g>
<!-- taskBatPhy -->
<g id="node2" class="node"><title>taskBatPhy</title>
<g id="a_node2"><a xlink:href="bat-physics.html" xlink:title="Bat physics">
<polygon fill="none" stroke="black" points="181.5,-324 101.5,-324 101.5,-288 181.5,-288 181.5,-324"/>
<text text-anchor="middle" x="141.5" y="-302.3" font-family="Times,serif" font-size="14.00">Bat physics</text>
</a>
</g>
</g>
<!-- taskBallPhy&#45;&gt;taskBatPhy -->
<g id="edge2" class="edge"><title>taskBallPhy&#45;&gt;taskBatPhy</title>
<path fill="none" stroke="black" d="M83.2969,-306C85.9494,-306 88.6018,-306 91.2543,-306"/>
<polygon fill="black" stroke="black" points="91.4854,-309.5 101.485,-306 91.4853,-302.5 91.4854,-309.5"/>
</g>
<!-- taskBallSkin -->
<g id="node4" class="node"><title>taskBallSkin</title>
<g id="a_node4"><a xlink:href="ball-skin.html" xlink:title="Ball skin">
<polygon fill="none" stroke="black" points="83,-252 18,-252 18,-216 83,-216 83,-252"/>
<text text-anchor="middle" x="50.5" y="-230.3" font-family="Times,serif" font-size="14.00">Ball skin</text>
</a>
</g>
</g>
<!-- taskBallPhy&#45;&gt;taskBallSkin -->
<g id="edge3" class="edge"><title>taskBallPhy&#45;&gt;taskBallSkin</title>
<path fill="none" stroke="black" d="M43.7247,-287.697C44.7165,-279.983 45.9084,-270.712 47.0141,-262.112"/>
<polygon fill="black" stroke="black" points="50.497,-262.469 48.3009,-252.104 43.5541,-261.576 50.497,-262.469"/>
</g>
<!-- taskBatSkin -->
<g id="node3" class="node"><title>taskBatSkin</title>
<g id="a_node3"><a xlink:href="ball-physics.html" xlink:title="Bat skin">
<polygon fill="none" stroke="black" points="172.5,-252 110.5,-252 110.5,-216 172.5,-216 172.5,-252"/>
<text text-anchor="middle" x="141.5" y="-230.3" font-family="Times,serif" font-size="14.00">Bat skin</text>
</a>
</g>
</g>
<!-- taskBatPhy&#45;&gt;taskBatSkin -->
<g id="edge4" class="edge"><title>taskBatPhy&#45;&gt;taskBatSkin</title>
<path fill="none" stroke="black" d="M141.5,-287.697C141.5,-279.983 141.5,-270.712 141.5,-262.112"/>
<polygon fill="black" stroke="black" points="145,-262.104 141.5,-252.104 138,-262.104 145,-262.104"/>
</g>
<!-- taskGame -->
<g id="node7" class="node"><title>taskGame</title>
<g id="a_node7"><a xlink:href="game.html" xlink:title="Game">
<polygon fill="none" stroke="black" points="168.5,-180 114.5,-180 114.5,-144 168.5,-144 168.5,-180"/>
<text text-anchor="middle" x="141.5" y="-158.3" font-family="Times,serif" font-size="14.00">Game</text>
</a>
</g>
</g>
<!-- taskBatSkin&#45;&gt;taskGame -->
<g id="edge7" class="edge"><title>taskBatSkin&#45;&gt;taskGame</title>
<path fill="none" stroke="black" d="M141.5,-215.697C141.5,-207.983 141.5,-198.712 141.5,-190.112"/>
<polygon fill="black" stroke="black" points="145,-190.104 141.5,-180.104 138,-190.104 145,-190.104"/>
</g>
<!-- taskBallSkin&#45;&gt;taskGame -->
<g id="edge6" class="edge"><title>taskBallSkin&#45;&gt;taskGame</title>
<path fill="none" stroke="black" d="M72.9944,-215.697C84.4551,-206.881 98.5583,-196.032 110.984,-186.474"/>
<polygon fill="black" stroke="black" points="113.472,-188.976 119.264,-180.104 109.204,-183.427 113.472,-188.976"/>
</g>
<!-- taskNetPhy -->
<g id="node5" class="node"><title>taskNetPhy</title>
<g id="a_node5"><a xlink:href="net-phy.html" xlink:title="Net physics">
<polygon fill="none" stroke="black" points="279.5,-324 199.5,-324 199.5,-288 279.5,-288 279.5,-324"/>
<text text-anchor="middle" x="239.5" y="-302.3" font-family="Times,serif" font-size="14.00">Net physics</text>
</a>
</g>
</g>
<!-- taskNetSkin -->
<g id="node6" class="node"><title>taskNetSkin</title>
<g id="a_node6"><a xlink:href="net-skin.html" xlink:title="Net skin">
<polygon fill="none" stroke="black" points="261.5,-252 199.5,-252 199.5,-216 261.5,-216 261.5,-252"/>
<text text-anchor="middle" x="230.5" y="-230.3" font-family="Times,serif" font-size="14.00">Net skin</text>
</a>
</g>
</g>
<!-- taskNetPhy&#45;&gt;taskNetSkin -->
<g id="edge1" class="edge"><title>taskNetPhy&#45;&gt;taskNetSkin</title>
<path fill="none" stroke="black" d="M237.275,-287.697C236.283,-279.983 235.092,-270.712 233.986,-262.112"/>
<polygon fill="black" stroke="black" points="237.446,-261.576 232.699,-252.104 230.503,-262.469 237.446,-261.576"/>
</g>
<!-- taskNetSkin&#45;&gt;taskGame -->
<g id="edge5" class="edge"><title>taskNetSkin&#45;&gt;taskGame</title>
<path fill="none" stroke="black" d="M208.5,-215.697C197.291,-206.881 183.498,-196.032 171.346,-186.474"/>
<polygon fill="black" stroke="black" points="173.271,-183.535 163.247,-180.104 168.943,-189.038 173.271,-183.535"/>
</g>
<!-- taskMultiplayer -->
<g id="node9" class="node"><title>taskMultiplayer</title>
<g id="a_node9"><a xlink:href="multiplayer.html" xlink:title="Multiplayer">
<polygon fill="none" stroke="black" points="182,-108 101,-108 101,-72 182,-72 182,-108"/>
<text text-anchor="middle" x="141.5" y="-86.3" font-family="Times,serif" font-size="14.00">Multiplayer</text>
</a>
</g>
</g>
<!-- taskGame&#45;&gt;taskMultiplayer -->
<g id="edge8" class="edge"><title>taskGame&#45;&gt;taskMultiplayer</title>
<path fill="none" stroke="black" d="M141.5,-143.697C141.5,-135.983 141.5,-126.712 141.5,-118.112"/>
<polygon fill="black" stroke="black" points="145,-118.104 141.5,-108.104 138,-118.104 145,-118.104"/>
</g>
<!-- taskAI -->
<g id="node8" class="node"><title>taskAI</title>
<g id="a_node8"><a xlink:href="ai.html" xlink:title="AI">
<polygon fill="none" stroke="black" points="168.5,-36 114.5,-36 114.5,-0 168.5,-0 168.5,-36"/>
<text text-anchor="middle" x="141.5" y="-14.3" font-family="Times,serif" font-size="14.00">AI</text>
</a>
</g>
</g>
<!-- taskMultiplayer&#45;&gt;taskAI -->
<g id="edge9" class="edge"><title>taskMultiplayer&#45;&gt;taskAI</title>
<path fill="none" stroke="black" d="M141.5,-71.6966C141.5,-63.9827 141.5,-54.7125 141.5,-46.1124"/>
<polygon fill="black" stroke="black" points="145,-46.1043 141.5,-36.1043 138,-46.1044 145,-46.1043"/>
</g>
</g>
</svg>
