<?xml version="1.0" encoding="UTF-8" standalone="no"?>
<!DOCTYPE svg PUBLIC "-//W3C//DTD SVG 1.1//EN"
 "http://www.w3.org/Graphics/SVG/1.1/DTD/svg11.dtd">
<!-- Generated by graphviz version 2.30.1 (20130214.1330)
 -->
<!-- Title: Tasks Pages: 1 -->
<svg width="379pt" height="404pt"
 viewBox="0.00 0.00 379.00 404.00" xmlns="http://www.w3.org/2000/svg" xmlns:xlink="http://www.w3.org/1999/xlink">
<g id="graph0" class="graph" transform="scale(1 1) rotate(0) translate(4 400)">
<title>Tasks</title>
<polygon fill="white" stroke="white" points="-4,5 -4,-400 376,-400 376,5 -4,5"/>
<!-- taskBallPhy -->
<g id="node1" class="node"><title>taskBallPhy</title>
<g id="a_node1"><a xlink:href="ball-physics.html" xlink:title="Ball physics">
<polygon fill="none" stroke="black" points="84,-324 0,-324 0,-288 84,-288 84,-324"/>
<text text-anchor="middle" x="42" y="-302.3" font-family="Times New Roman,serif" font-size="14.00">Ball physics</text>
</a>
</g>
</g>
<!-- taskBatPhy -->
<g id="node2" class="node"><title>taskBatPhy</title>
<g id="a_node2"><a xlink:href="bat-physics.html" xlink:title="Bat physics">
<polygon fill="none" stroke="black" points="184,-324 102,-324 102,-288 184,-288 184,-324"/>
<text text-anchor="middle" x="143" y="-302.3" font-family="Times New Roman,serif" font-size="14.00">Bat physics</text>
</a>
</g>
</g>
<!-- taskBallPhy&#45;&gt;taskBatPhy -->
<g id="edge4" class="edge"><title>taskBallPhy&#45;&gt;taskBatPhy</title>
<path fill="none" stroke="black" d="M84.2148,-306C86.669,-306 89.1232,-306 91.5773,-306"/>
<polygon fill="black" stroke="black" points="91.6667,-309.5 101.667,-306 91.6667,-302.5 91.6667,-309.5"/>
</g>
<!-- taskBallSkin -->
<g id="node4" class="node"><title>taskBallSkin</title>
<g id="a_node4"><a xlink:href="ball-skin.html" xlink:title="Ball skin">
<polygon fill="none" stroke="black" points="92,-252 28,-252 28,-216 92,-216 92,-252"/>
<text text-anchor="middle" x="60" y="-230.3" font-family="Times New Roman,serif" font-size="14.00">Ball skin</text>
</a>
</g>
</g>
<!-- taskBallPhy&#45;&gt;taskBallSkin -->
<g id="edge5" class="edge"><title>taskBallPhy&#45;&gt;taskBallSkin</title>
<path fill="none" stroke="black" d="M46.4494,-287.697C48.4548,-279.898 50.8692,-270.509 53.1011,-261.829"/>
<polygon fill="black" stroke="black" points="56.501,-262.661 55.6017,-252.104 49.7215,-260.918 56.501,-262.661"/>
</g>
<!-- taskBatSkin -->
<g id="node3" class="node"><title>taskBatSkin</title>
<g id="a_node3"><a xlink:href="ball-physics.html" xlink:title="Bat skin">
<polygon fill="none" stroke="black" points="182,-252 120,-252 120,-216 182,-216 182,-252"/>
<text text-anchor="middle" x="151" y="-230.3" font-family="Times New Roman,serif" font-size="14.00">Bat skin</text>
</a>
</g>
</g>
<!-- taskBatPhy&#45;&gt;taskBatSkin -->
<g id="edge6" class="edge"><title>taskBatPhy&#45;&gt;taskBatSkin</title>
<path fill="none" stroke="black" d="M144.978,-287.697C145.859,-279.983 146.919,-270.712 147.901,-262.112"/>
<polygon fill="black" stroke="black" points="151.387,-262.437 149.045,-252.104 144.432,-261.642 151.387,-262.437"/>
</g>
<!-- taskGame -->
<g id="node9" class="node"><title>taskGame</title>
<g id="a_node9"><a xlink:href="game.html" xlink:title="Game">
<polygon fill="none" stroke="black" points="216,-180 162,-180 162,-144 216,-144 216,-180"/>
<text text-anchor="middle" x="189" y="-158.3" font-family="Times New Roman,serif" font-size="14.00">Game</text>
</a>
</g>
</g>
<!-- taskBatSkin&#45;&gt;taskGame -->
<g id="edge10" class="edge"><title>taskBatSkin&#45;&gt;taskGame</title>
<path fill="none" stroke="black" d="M160.393,-215.697C164.765,-207.644 170.057,-197.894 174.895,-188.982"/>
<polygon fill="black" stroke="black" points="178.02,-190.563 179.715,-180.104 171.868,-187.223 178.02,-190.563"/>
</g>
<!-- taskBallSkin&#45;&gt;taskGame -->
<g id="edge9" class="edge"><title>taskBallSkin&#45;&gt;taskGame</title>
<path fill="none" stroke="black" d="M91.557,-215.876C110.102,-205.813 133.614,-193.055 152.895,-182.592"/>
<polygon fill="black" stroke="black" points="154.582,-185.659 161.702,-177.813 151.243,-179.506 154.582,-185.659"/>
</g>
<!-- taskMapPhy -->
<g id="node5" class="node"><title>taskMapPhy</title>
<g id="a_node5"><a xlink:href="map-physics.html" xlink:title="Map physics">
<polygon fill="none" stroke="black" points="187.25,-396 98.75,-396 98.75,-360 187.25,-360 187.25,-396"/>
<text text-anchor="middle" x="143" y="-374.3" font-family="Times New Roman,serif" font-size="14.00">Map physics</text>
</a>
</g>
</g>
<!-- taskMapPhy&#45;&gt;taskBallPhy -->
<g id="edge2" class="edge"><title>taskMapPhy&#45;&gt;taskBallPhy</title>
<path fill="none" stroke="black" d="M118.293,-359.876C105.331,-350.893 89.2716,-339.763 75.235,-330.034"/>
<polygon fill="black" stroke="black" points="77.0151,-327.009 66.8024,-324.19 73.0276,-332.763 77.0151,-327.009"/>
</g>
<!-- taskMapPhy&#45;&gt;taskBatPhy -->
<g id="edge3" class="edge"><title>taskMapPhy&#45;&gt;taskBatPhy</title>
<path fill="none" stroke="black" d="M143,-359.697C143,-351.983 143,-342.712 143,-334.112"/>
<polygon fill="black" stroke="black" points="146.5,-334.104 143,-324.104 139.5,-334.104 146.5,-334.104"/>
</g>
<!-- taskMapSkin -->
<g id="node6" class="node"><title>taskMapSkin</title>
<g id="a_node6"><a xlink:href="map-skin.html" xlink:title="Map skin">
<polygon fill="none" stroke="black" points="270,-324 202,-324 202,-288 270,-288 270,-324"/>
<text text-anchor="middle" x="236" y="-302.3" font-family="Times New Roman,serif" font-size="14.00">Map skin</text>
</a>
</g>
</g>
<!-- taskMapPhy&#45;&gt;taskMapSkin -->
<g id="edge7" class="edge"><title>taskMapPhy&#45;&gt;taskMapSkin</title>
<path fill="none" stroke="black" d="M165.989,-359.697C177.814,-350.796 192.392,-339.823 205.179,-330.199"/>
<polygon fill="black" stroke="black" points="207.391,-332.915 213.276,-324.104 203.181,-327.322 207.391,-332.915"/>
</g>
<!-- taskMapSkin&#45;&gt;taskGame -->
<g id="edge11" class="edge"><title>taskMapSkin&#45;&gt;taskGame</title>
<path fill="none" stroke="black" d="M230.331,-287.871C222.285,-263.564 207.475,-218.819 197.941,-190.013"/>
<polygon fill="black" stroke="black" points="201.154,-188.583 194.689,-180.189 194.509,-190.783 201.154,-188.583"/>
</g>
<!-- taskNetPhy -->
<g id="node7" class="node"><title>taskNetPhy</title>
<g id="a_node7"><a xlink:href="net-phy.html" xlink:title="Net physics">
<polygon fill="none" stroke="black" points="371.25,-324 288.75,-324 288.75,-288 371.25,-288 371.25,-324"/>
<text text-anchor="middle" x="330" y="-302.3" font-family="Times New Roman,serif" font-size="14.00">Net physics</text>
</a>
</g>
</g>
<!-- taskNetSkin -->
<g id="node8" class="node"><title>taskNetSkin</title>
<g id="a_node8"><a xlink:href="net-skin.html" xlink:title="Net skin">
<polygon fill="none" stroke="black" points="351,-252 289,-252 289,-216 351,-216 351,-252"/>
<text text-anchor="middle" x="320" y="-230.3" font-family="Times New Roman,serif" font-size="14.00">Net skin</text>
</a>
</g>
</g>
<!-- taskNetPhy&#45;&gt;taskNetSkin -->
<g id="edge1" class="edge"><title>taskNetPhy&#45;&gt;taskNetSkin</title>
<path fill="none" stroke="black" d="M327.528,-287.697C326.426,-279.983 325.102,-270.712 323.873,-262.112"/>
<polygon fill="black" stroke="black" points="327.323,-261.509 322.443,-252.104 320.393,-262.499 327.323,-261.509"/>
</g>
<!-- taskNetSkin&#45;&gt;taskGame -->
<g id="edge8" class="edge"><title>taskNetSkin&#45;&gt;taskGame</title>
<path fill="none" stroke="black" d="M288.955,-216.411C269.796,-206.173 245.139,-192.998 225.109,-182.295"/>
<polygon fill="black" stroke="black" points="226.737,-179.196 216.268,-177.57 223.438,-185.37 226.737,-179.196"/>
</g>
<!-- taskMultiplayer -->
<g id="node11" class="node"><title>taskMultiplayer</title>
<g id="a_node11"><a xlink:href="multiplayer.html" xlink:title="Multiplayer">
<polygon fill="none" stroke="black" points="228.25,-108 149.75,-108 149.75,-72 228.25,-72 228.25,-108"/>
<text text-anchor="middle" x="189" y="-86.3" font-family="Times New Roman,serif" font-size="14.00">Multiplayer</text>
</a>
</g>
</g>
<!-- taskGame&#45;&gt;taskMultiplayer -->
<g id="edge12" class="edge"><title>taskGame&#45;&gt;taskMultiplayer</title>
<path fill="none" stroke="black" d="M189,-143.697C189,-135.983 189,-126.712 189,-118.112"/>
<polygon fill="black" stroke="black" points="192.5,-118.104 189,-108.104 185.5,-118.104 192.5,-118.104"/>
</g>
<!-- taskAI -->
<g id="node10" class="node"><title>taskAI</title>
<g id="a_node10"><a xlink:href="ai.html" xlink:title="AI">
<polygon fill="none" stroke="black" points="216,-36 162,-36 162,-0 216,-0 216,-36"/>
<text text-anchor="middle" x="189" y="-14.3" font-family="Times New Roman,serif" font-size="14.00">AI</text>
</a>
</g>
</g>
<!-- taskMultiplayer&#45;&gt;taskAI -->
<g id="edge13" class="edge"><title>taskMultiplayer&#45;&gt;taskAI</title>
<path fill="none" stroke="black" d="M189,-71.6966C189,-63.9827 189,-54.7125 189,-46.1124"/>
<polygon fill="black" stroke="black" points="192.5,-46.1043 189,-36.1043 185.5,-46.1044 192.5,-46.1043"/>
</g>
</g>
</svg>
